<svg width="110" height="110" viewBox="0 0 110 110" fill="none" xmlns="http://www.w3.org/2000/svg">
<circle cx="55" cy="55" r="55" fill="#0F462F"/>
<circle cx="54" cy="55" r="35" stroke="white" stroke-width="2"/>
<line x1="30.9501" y1="28.0726" x2="79.7175" y2="78.3034" stroke="#FDFDFD" stroke-width="2"/>
<path fill-rule="evenodd" clip-rule="evenodd" d="M72.3295 66.3626C72.6718 66.2008 72.8538 66.0149 73.0358 65.6508C73.3612 65.0089 73.2117 64.2528 72.6402 63.7516C72.2797 63.4438 72.2005 63.4175 71.2773 63.3383C70.9168 63.312 70.4596 63.2152 70.2573 63.1273C69.7825 62.9163 68.534 62.0898 67.1359 61.0434C67.1269 61.0368 67.1179 61.0301 67.109 61.0235L72.3295 66.3626ZM65.7216 59.6046C65.5819 59.1732 65.6884 58.6538 65.9313 57.7462C66.2303 56.6119 66.3446 55.7502 66.3446 54.5017C66.3446 53.2531 66.2303 52.3914 65.9313 51.2572C65.4389 49.4195 65.5181 49.1645 67.004 48.0478C69.5803 46.1046 70.486 45.621 71.5499 45.621C72.7721 45.621 73.5282 44.5395 73.071 43.4492C72.8864 43.0096 72.7017 42.8162 72.2797 42.6227C71.418 42.227 70.6354 42.5348 70.0815 43.4756C69.6243 44.2582 69.211 44.5131 66.5029 45.7177C64.0497 46.808 64.0321 46.808 62.5637 45.4012C61.4998 44.39 60.348 43.5547 59.3192 43.0272C58.5894 42.6667 57.2178 42.1567 56.5847 42.016C55.6527 41.8138 55.2306 41.5588 54.9492 41.0312C54.7822 40.7059 54.4568 37.7164 54.4393 36.3887L54.4305 35.2808L54.7646 34.6477C55.1427 33.9179 55.1866 33.408 54.9229 32.8892C54.7206 32.4847 54.5184 32.3001 54.0963 32.1242C53.7007 31.9572 53.2874 31.9572 52.8917 32.133C52.4961 32.3089 52.2938 32.4935 52.0916 32.8892C51.8278 33.408 51.8718 33.9179 52.2587 34.6477L52.584 35.2896L52.5752 36.3887C52.5664 37.6988 52.2235 40.7235 52.0564 41.0576C51.863 41.4269 51.4234 41.7434 50.887 41.8841C50.184 42.0774 49.5579 42.2748 48.986 42.4886L52.2743 45.8516C52.4792 45.9189 52.7683 46.0454 52.9885 46.1662C53.9755 46.6852 54.6523 47.5729 54.9393 48.5772L57.664 51.3638C57.9815 50.3342 58.9899 49.6088 60.1281 49.7096C60.4007 49.7272 60.7876 49.8327 60.9722 49.9207C61.8515 50.3691 62.3263 51.1253 62.3263 52.0837C62.3263 53.2335 61.5796 54.1072 60.6212 54.3883L65.7216 59.6046ZM49.5955 45.9727C49.1382 46.1615 48.7117 46.441 48.3283 46.808C47.748 47.362 47.4139 47.9159 47.2205 48.6545C46.6313 50.9494 48.1349 53.2443 50.4825 53.64C52.2059 53.9213 53.9381 52.9981 54.7118 51.3802C54.7306 51.3406 54.7486 51.3007 54.766 51.2607L66.5404 63.3027C65.6 62.8963 64.7417 62.5535 64.5685 62.5294C63.8738 62.4327 63.6716 62.5382 62.5637 63.6021C60.5942 65.475 58.6246 66.5389 56.1451 67.0752C55.0284 67.3214 54.9404 67.4094 54.7822 68.4909C54.5712 69.9241 54.3689 72.3684 54.4041 73.0543C54.4393 73.5994 54.5008 73.828 54.7646 74.3556C55.1603 75.1206 55.1954 75.6393 54.8877 76.1757C54.2634 77.2748 52.7511 77.2748 52.1268 76.1757C51.819 75.6305 51.8542 75.1118 52.2587 74.3556L52.584 73.7225L52.5752 72.6146C52.5576 71.2694 52.2323 68.2974 52.0564 67.9633C51.8102 67.4797 51.3706 67.1983 50.6408 67.0313C48.3987 66.5389 46.3412 65.4046 44.4507 63.6021C43.3429 62.5382 43.1406 62.4327 42.446 62.5294C42.1295 62.5734 39.5268 63.6812 38.3134 64.2967C37.7155 64.5957 37.1088 65.1584 36.8626 65.6332C36.4494 66.4246 35.5965 66.7411 34.8051 66.4158C34.3831 66.2399 34.1809 66.0553 33.9786 65.6508C33.6533 65.0089 33.8028 64.2528 34.3743 63.7516C34.7348 63.4351 34.8227 63.4087 35.7284 63.3471C36.722 63.2768 37.3287 62.9427 39.8785 61.0434C41.5052 59.8388 41.5843 59.619 41.0831 57.7462C40.7842 56.6119 40.6699 55.7502 40.6699 54.5017C40.6699 53.2531 40.7842 52.3914 41.0831 51.2572C41.5755 49.4195 41.4876 49.1557 40.0104 48.0478C38.7443 47.0982 37.2231 46.0782 36.7571 45.876C36.5549 45.7881 36.0977 45.6914 35.7372 45.665C34.8139 45.5859 34.7348 45.5595 34.3743 45.2517C33.8028 44.7505 33.6533 43.9944 33.9874 43.3437C34.2952 42.7282 34.9195 42.4029 35.6229 42.482C36.1065 42.5348 36.5373 42.8513 36.9242 43.4492C37.4166 44.2142 37.7331 44.4428 39.3158 45.1726C42.2877 46.5355 42.6395 46.6498 43.2637 46.4124C43.3868 46.3684 43.9408 45.8936 44.4947 45.366C45.3619 44.5352 46.1661 43.9023 47.0637 43.3833L49.5955 45.9727ZM46.7281 57.2977C47.4139 56.0931 46.9655 54.5808 45.7257 53.9565C45.2773 53.7191 44.354 53.6576 43.8968 53.8334C42.2789 54.4401 41.7338 56.3745 42.8329 57.6494C43.9232 58.9244 45.9015 58.7397 46.7281 57.2977ZM59.0115 61.1226C59.583 58.5639 57.8948 55.97 55.3097 55.4249C53.6919 55.082 52.074 55.5656 50.9134 56.7438C48.6361 59.0387 49.2252 62.8987 52.074 64.3759C53.1467 64.9298 54.1579 65.0705 55.3097 64.8331C56.2242 64.6397 56.9716 64.2264 57.6838 63.5142C58.4048 62.802 58.7917 62.1074 59.0115 61.1226Z" fill="#FCFCFC"/>
</svg>
