<svg width="110" height="110" viewBox="0 0 110 110" fill="none" xmlns="http://www.w3.org/2000/svg">
<circle cx="55" cy="55" r="55" fill="#0F462F"/>
<path fill-rule="evenodd" clip-rule="evenodd" d="M51.0327 40.4102C51.0219 40.4068 51.011 40.4118 51.0083 40.4216L48.2037 50.5856C48.1604 50.7424 48.0368 50.8633 47.8708 50.9113L38.813 53.5269C38.785 53.535 38.7591 53.5473 38.7361 53.5635L33.6806 57.1254C33.6585 57.141 33.6561 57.1715 33.6751 57.1936C33.7117 57.236 33.6657 57.2896 33.6143 57.2645L20.0046 50.6266C17.9048 49.6025 20.3439 38.7016 22.7806 38.1974C25.2059 37.6955 26.2986 35.1754 27.2128 33.0669C28.0111 31.226 28.6733 29.6987 29.9676 30.1025C29.9937 30.1106 30.0208 30.1218 30.0455 30.1338L51.0456 40.3763C51.0683 40.3874 51.0568 40.4179 51.0327 40.4102ZM36.5189 47.4055C32.9666 54.6888 28.8728 52.2871 26.6886 51.0056C26.4012 50.837 26.1468 50.6877 25.9311 50.5825C24.6868 49.9756 26.2097 47.932 27.6956 45.938C28.4248 44.9595 29.1451 43.9929 29.525 43.2141C30.6789 40.8481 34.8433 37.047 37.3138 38.2519C42.436 40.1078 39.9351 43.0939 37.9581 45.4545C37.3495 46.1812 36.7906 46.8486 36.5189 47.4055Z" fill="#F9F9F9"/>
<path d="M52.1597 40.9197C51.8398 40.7636 51.4727 40.8982 51.3888 41.2023L48.6482 51.1346C48.6265 51.213 48.5647 51.2735 48.4817 51.2975L39.1546 53.9909C39.0986 54.0071 39.0467 54.0318 39.0008 54.0641L34.3051 57.3725C34.2163 57.435 34.2383 57.5689 34.3459 57.6214C34.382 57.639 34.4226 57.6441 34.4599 57.6358L38.2747 56.7822C38.4071 56.7526 38.5516 56.7709 38.68 56.8335L41.9241 58.4157C42.0761 58.4899 42.2492 58.5014 42.3976 58.4471L47.3391 56.6396C47.6125 56.5396 47.944 56.6678 48.0874 56.9291L49.738 59.9362C49.8851 60.2043 50.2291 60.3311 50.5045 60.2187L54.6139 58.5416C54.8969 58.4261 55.2505 58.5634 55.3904 58.8433L56.9629 61.9871C57.1004 62.2618 57.4445 62.4002 57.7263 62.294L61.7531 60.7757C62.0271 60.6724 62.362 60.8003 62.5064 61.0634L64.1627 64.081C64.3066 64.3431 64.6397 64.4712 64.9134 64.3697L69.2622 62.756C69.5425 62.6519 69.8836 62.789 70.0216 63.0611L71.4811 65.9407C71.6165 66.2078 71.9482 66.3457 72.2269 66.2507L76.4373 64.8166C76.7314 64.7164 77.0806 64.8756 77.2006 65.1647L78.3836 68.0128C78.5079 68.3121 78.8763 68.47 79.1731 68.3512L83.5052 66.6163C83.802 66.4975 84.1704 66.6553 84.2948 66.9547L85.4722 69.7896C85.5943 70.0835 85.9524 70.2422 86.2479 70.1334L89.1859 69.0512C89.3054 69.0071 89.3999 68.9236 89.4527 68.8154L93.054 61.4316C93.1772 61.1789 93.0451 60.8608 92.7589 60.7212L52.1597 40.9197Z" fill="#F9F9F9"/>
<g clip-path="url(#clip0_30_117)">
<rect x="36.5" y="59.8841" width="37" height="22" fill="#F9F9F9"/>
<path d="M36.2959 65.7968C39.769 65.7968 40.4893 65.798 45.12 66.5698C49.7507 67.3416 60.5667 67.3066 63.6944 65.7968C67.0324 64.1855 71.7961 63.5431 73.5969 62.1281" stroke="#838383" stroke-width="0.5"/>
<path d="M36.2959 71.8289C39.769 71.8289 43.2421 73.3724 47.8728 74.1442C52.5035 74.916 60.7553 72.8577 64.2283 72.8577C67.0068 72.8577 71.7961 69.5751 73.5969 68.1602" stroke="#838383" stroke-width="0.5"/>
<path d="M73.7041 80.0999C70.231 80.0999 66.7579 78.5563 62.1272 77.7845C57.4965 77.0127 49.7786 80.0999 46.3056 80.0999C43.5271 80.0999 38.2039 82.3537 36.4031 83.7686" stroke="#838383" stroke-width="0.5"/>
<path d="M14.4434 61.0838C17.9164 61.0838 18.6367 61.0849 23.2674 61.8567C27.8981 62.6285 38.7142 62.5936 41.8419 61.0838C45.1799 59.4725 49.9435 58.83 51.7444 57.415" stroke="#838383" stroke-width="0.5"/>
</g>
<rect x="37" y="60.3841" width="36" height="21" stroke="#0F462F"/>
<defs>
<clipPath id="clip0_30_117">
<rect x="36.5" y="59.8841" width="37" height="22" fill="white"/>
</clipPath>
</defs>
</svg>
