<svg width="110" height="110" viewBox="0 0 110 110" fill="none" xmlns="http://www.w3.org/2000/svg">
<circle cx="55" cy="55" r="55" fill="#0F462F"/>
<circle cx="55" cy="55" r="33.0424" fill="#FFFBFB"/>
<circle cx="55" cy="55" r="29.2586" stroke="#0F462F" stroke-width="2"/>
<mask id="path-4-inside-1_40_156" fill="white">
<path d="M78.4017 55C78.4017 48.7934 75.9361 42.8411 71.5474 38.4524C67.1587 34.0637 61.2064 31.5981 54.9998 31.5981C48.7933 31.5981 42.841 34.0637 38.4523 38.4524C34.0636 42.8411 31.598 48.7934 31.598 55H33.9384C33.9384 49.4141 36.1574 44.0571 40.1072 40.1073C44.0569 36.1575 49.414 33.9385 54.9998 33.9385C60.5857 33.9385 65.9427 36.1575 69.8925 40.1073C73.8423 44.0571 76.0613 49.4141 76.0613 55H78.4017Z"/>
</mask>
<path d="M78.4017 55C78.4017 48.7934 75.9361 42.8411 71.5474 38.4524C67.1587 34.0637 61.2064 31.5981 54.9998 31.5981C48.7933 31.5981 42.841 34.0637 38.4523 38.4524C34.0636 42.8411 31.598 48.7934 31.598 55H33.9384C33.9384 49.4141 36.1574 44.0571 40.1072 40.1073C44.0569 36.1575 49.414 33.9385 54.9998 33.9385C60.5857 33.9385 65.9427 36.1575 69.8925 40.1073C73.8423 44.0571 76.0613 49.4141 76.0613 55H78.4017Z" stroke="#0F462F" stroke-width="6" mask="url(#path-4-inside-1_40_156)"/>
<circle cx="54.9998" cy="53.1481" r="1.85185" fill="#0F462F"/>
<path d="M55.61 52.6712C55.2769 52.2126 55.3911 51.569 55.8617 51.2531L67.0125 43.7682C67.2512 43.608 67.574 43.6653 67.7431 43.8979C67.9121 44.1306 67.8668 44.4553 67.6406 44.6329L57.0749 52.9232C56.629 53.273 55.9817 53.1828 55.6486 52.7242L55.61 52.6712Z" fill="#0F462F"/>
<path d="M91.5043 84.5412C92.4963 88.6939 91.5145 91.0951 89.9637 92.4984C88.3347 93.9726 85.8515 94.5575 83.4902 94.5575C82.4195 94.5575 81.5986 94.2968 80.9626 93.8669C80.323 93.4347 79.806 92.7878 79.4182 91.9153C78.6287 90.1387 78.4263 87.537 78.7856 84.4235C79.3675 79.381 80.4685 76.9029 81.4413 75.6412C82.2237 74.6265 82.9335 74.3519 83.5393 74.1179C84.0232 74.2927 84.634 74.6472 85.3294 75.1971C86.1499 75.8461 87.0225 76.7149 87.8548 77.7252C89.5302 79.7588 90.9604 82.2642 91.5043 84.5412Z" stroke="#F9F9F9" stroke-width="2"/>
<path d="M83.8134 79.5485C82.8701 80.4932 82.5659 81.4198 82.3131 82.1872C82.0273 83.055 81.1985 85.2341 82.029 85.9538" stroke="white" stroke-width="2"/>
</svg>
