<svg width="110" height="110" viewBox="0 0 110 110" fill="none" xmlns="http://www.w3.org/2000/svg">
<circle cx="55" cy="55" r="55" fill="#0F462F"/>
<path d="M30.5462 39.8744C30.5462 39.5337 30.747 39.225 31.0585 39.0868L54.6562 28.6186C54.8787 28.5199 55.1325 28.5199 55.355 28.6186L78.9527 39.0868C79.2642 39.225 79.465 39.5337 79.465 39.8744V80.4963C79.465 80.9721 79.0792 81.3579 78.6033 81.3579H31.4079C30.932 81.3579 30.5462 80.9721 30.5462 80.4963V39.8744Z" fill="#F9F9F9"/>
<path fill-rule="evenodd" clip-rule="evenodd" d="M54.4508 25.3507C54.6746 25.2496 54.931 25.2489 55.1555 25.3487L80.4157 36.58C80.8506 36.7733 81.3598 36.5776 81.5531 36.1427L82.9534 32.9934C83.1467 32.5585 82.951 32.0493 82.5161 31.856L56.5503 20.3109C55.428 19.8119 54.1462 19.8156 53.0268 20.3211L27.4794 31.8575C27.0457 32.0534 26.8529 32.5637 27.0487 32.9975L28.4672 36.1387C28.6631 36.5724 29.1734 36.7652 29.6071 36.5693L54.4508 25.3507Z" fill="#F9F9F9"/>
<path d="M47.6971 75.7586C51.0128 80.9778 52.1045 79.6749 54.6148 81.8841C55.9202 81.0138 60.0287 78.9797 61.8559 75.7586C64.3546 71.354 63.8994 69.406 63.6635 67.5243C63.2505 64.2302 61.6551 60.7963 60.0484 56.88C58.4417 52.9637 57.9199 50.0635 57.2367 49.6499C56.561 49.769 55.7151 53.0908 54.0232 54.8406C52.4906 56.4256 51.9936 56.026 49.4816 59.8712C47.0489 63.5949 44.3794 70.5364 47.6971 75.7586Z" fill="#0F462F"/>
<path d="M56.2229 70.1523C56.2941 72.4362 55.6609 76.5765 55.5776 77.5282C55.511 78.2895 54.5815 82.7724 53.9363 84.9545" stroke="white" stroke-width="0.3"/>
<path d="M56.177 78.0292C56.1567 78.2614 55.8866 78.6201 55.8777 78.7225C55.8705 78.8045 55.3984 79.3889 55.0483 79.6206" stroke="white" stroke-width="0.1"/>
<path d="M56.4804 74.4062C56.5426 74.5218 56.2624 75.0139 56.1822 75.2682C56.0548 75.6724 55.9024 75.815 55.6535 76.0614" stroke="white" stroke-width="0.1"/>
<path d="M54.9587 76.0006C54.9773 76.251 55.0811 76.7627 55.1073 76.8151C55.3384 77.2775 55.3835 77.3175 55.525 77.5297" stroke="white" stroke-width="0.1"/>
<path d="M55.5013 73.5095C55.3796 73.9053 55.4325 74.296 55.4233 74.401C55.416 74.4851 55.482 74.6917 55.7476 74.984" stroke="white" stroke-width="0.1"/>
<path d="M54.7115 77.2589C54.6703 77.7294 54.942 78.0059 54.9334 78.1042C54.9265 78.1829 55.2392 78.7335 55.3964 78.9991" stroke="white" stroke-width="0.1"/>
</svg>
