<svg width="110" height="110" viewBox="0 0 110 110" fill="none" xmlns="http://www.w3.org/2000/svg">
<circle cx="55" cy="55" r="55" fill="#0F462F"/>
<path d="M54.6055 17.7154C54.0963 17.9281 53.7031 18.5082 53.7031 19.0625C53.7031 19.4428 53.9481 19.9648 54.2252 20.1775C54.3477 20.2678 54.7731 20.4934 55.1727 20.6803C55.5658 20.8607 55.8946 21.0412 55.8946 21.067C55.8946 21.0928 54.1028 24.6506 51.9114 28.9754C49.7135 33.2937 47.8895 36.9225 47.8508 37.0449C47.7541 37.3092 47.7606 37.7217 47.8573 37.9859C47.9024 38.0891 48.6371 39.5392 49.5008 41.1957C50.5321 43.168 51.0541 44.2443 51.0283 44.3152C51.009 44.3732 50.7383 44.9984 50.4354 45.6945L49.8811 46.9642L44.8473 46.9836C39.1883 47.0029 39.4912 46.9771 39.0465 47.4928C38.7565 47.8344 38.6856 48.1244 38.6856 48.9623V49.6777H36.578C34.6701 49.6777 34.4381 49.6906 34.2061 49.8002C33.8774 49.9484 33.4906 50.3738 33.4069 50.6896C33.3102 51.0248 33.3102 57.6119 33.4069 57.9471C33.4906 58.2629 33.8774 58.6883 34.2061 58.8365C34.4381 58.9461 34.6701 58.959 36.578 58.959H38.6856V59.8033C38.6856 60.2738 38.7178 60.7637 38.7565 60.899C38.8596 61.2213 39.1496 61.5758 39.4783 61.7498C39.7426 61.8916 39.7942 61.8916 42.5721 61.9109L45.3887 61.9303V63.0904C45.3887 64.1668 45.4016 64.2892 45.5563 64.7469C46.1428 66.4935 47.5994 67.5957 49.7973 67.9502C50.2162 68.0211 50.9188 68.0469 52.2658 68.0469C53.4002 68.0469 54.1608 68.0726 54.1865 68.1113C54.3348 68.3498 54.4895 69.4068 54.5217 70.3994C54.5475 71.3404 54.5346 71.5853 54.425 72.1267C54.3026 72.7133 54.019 73.4223 53.8192 73.6543C53.774 73.7058 53.5936 73.867 53.4196 74.0023C53.0328 74.3182 52.8717 74.6598 52.8653 75.156C52.8653 75.9617 53.4582 76.5547 54.2639 76.5547C55.5723 76.5482 56.8614 74.8402 57.2932 72.5392C57.4479 71.7142 57.4479 69.6066 57.2932 68.7687C57.2352 68.4465 57.1836 68.1435 57.1836 68.1113C57.1836 68.0726 57.2803 68.0469 57.3963 68.0469C57.5703 68.0469 57.6283 68.0855 57.6992 68.2209C57.7444 68.324 58.8336 70.7281 60.1227 73.5769C61.5858 76.8125 62.5783 78.9266 62.7717 79.2166C63.1778 79.8353 64.1059 80.7892 64.6989 81.1953C65.3047 81.6142 66.1168 82.001 66.7678 82.1685C67.8184 82.4521 69.7326 82.3812 70.3965 82.0396C70.8283 81.8141 76.6162 77.8308 76.758 77.6633C76.8418 77.5666 76.9514 77.3346 77.0094 77.1412C77.0996 76.8512 77.1061 76.7287 77.0416 76.4773C76.9965 76.2582 75.7719 74.1183 73.0391 69.4584C70.8799 65.7652 69.1074 62.7359 69.1074 62.723C69.1074 62.7101 69.4168 62.6973 69.8035 62.6973C70.1838 62.6973 70.6092 62.665 70.751 62.6264C71.0862 62.5361 71.5631 62.0463 71.6727 61.6918C71.7242 61.5113 71.75 60.8668 71.75 59.6486V57.8697L73.1551 57.8504L74.5666 57.831L74.8309 57.657C74.9727 57.5603 75.1789 57.3412 75.2756 57.1736L75.4561 56.8642L75.4754 54.4344C75.4883 52.8101 75.469 51.9142 75.4239 51.7402C75.3336 51.4115 74.9598 50.9861 74.6182 50.8314C74.399 50.7283 74.1799 50.709 73.0584 50.709H71.7565L71.7371 49.3683C71.7178 48.0406 71.7178 48.0342 71.5373 47.7248C71.3246 47.3703 71.0024 47.1318 70.5899 47.0416C70.403 46.9965 68.2631 46.9707 64.6924 46.9707L59.085 46.9642L61.1797 46.4228C62.3334 46.1264 63.384 45.8492 63.5194 45.8105C64.1188 45.6365 63.9641 45.9137 68.3469 37.1416C70.5834 32.675 72.4139 29.0141 72.4203 29.0076C72.4268 28.9947 72.7233 29.1172 73.0778 29.2783C73.8512 29.6264 74.1928 29.6586 74.702 29.4008C75.2498 29.1301 75.5785 28.4726 75.4561 27.8797C75.3916 27.5767 75.1338 27.1514 74.9211 27.0031C74.7858 26.9064 68.2373 23.7418 61.0701 20.3064C59.4201 19.5201 58.492 19.0754 57.0547 18.3793C55.727 17.7412 55.5723 17.6832 55.1856 17.6639C54.9535 17.6574 54.6957 17.6768 54.6055 17.7154ZM67.4123 27.2545C67.5348 27.3318 67.683 27.4994 67.7539 27.6412C68.0311 28.1762 68.1278 27.9441 65.0727 33.9769C63.5323 37.032 62.1916 39.6037 62.0949 39.7004C61.9918 39.8035 61.0959 40.2611 59.9551 40.7961C58.1182 41.6533 57.9635 41.7178 57.6026 41.7178C57.2932 41.7178 57.1707 41.6855 56.9967 41.5631C56.7582 41.389 56.5455 40.983 56.5391 40.693C56.5391 40.4416 56.7647 39.9775 56.9516 39.8551C57.0354 39.8035 57.8797 39.3974 58.8336 38.9592L60.561 38.16L63.2422 32.8619C64.7182 29.9551 66.0008 27.4865 66.1039 27.3834C66.4326 27.0418 66.974 26.9838 67.4123 27.2545ZM38.6856 54.3183V56.0586H37.461H36.2364V54.3183V52.5781H37.461H38.6856V54.3183ZM72.5879 54.3183V55.0273H72.169H71.75V54.3183V53.6094H72.169H72.5879V54.3183Z" fill="white"/>
<path d="M21.0641 43.6449C20.5356 43.8447 20.1295 44.4248 20.1231 44.992C20.1166 46.3519 21.8891 47.0158 22.7528 45.9717C23.3457 45.2434 23.1008 44.1863 22.2242 43.7351C21.8955 43.5676 21.3863 43.5289 21.0641 43.6449Z" fill="white"/>
<path d="M25.724 46.5389C25.3566 46.6742 25.0988 46.8869 24.9119 47.2156C24.551 47.8344 24.725 48.6143 25.3309 49.0783C26.0334 49.6133 26.9615 49.4715 27.4449 48.7625C27.6125 48.5111 27.6318 48.4338 27.6318 47.9568C27.6318 47.4734 27.6189 47.4154 27.432 47.1576C27.0518 46.6291 26.2525 46.3455 25.724 46.5389Z" fill="white"/>
<path d="M30.4678 49.4135C29.7781 49.594 29.3398 50.1418 29.3398 50.8379C29.3398 51.4567 29.7459 52.0045 30.3711 52.2236C30.9254 52.417 31.4217 52.301 31.86 51.8692C32.3305 51.3986 32.4207 50.7992 32.1178 50.2063C31.8277 49.6391 31.0479 49.2652 30.4678 49.4135Z" fill="white"/>
<path d="M18.009 52.8939C17.6674 52.9841 17.3065 53.2613 17.1131 53.59C16.7715 54.1765 16.9133 54.9564 17.4483 55.4011C18.1701 55.9941 19.2658 55.7685 19.6654 54.9435C19.833 54.6019 19.8459 54.0154 19.6977 53.7189C19.3818 53.0873 18.6535 52.7328 18.009 52.8939Z" fill="white"/>
<path d="M22.8301 52.894C22.1404 53.1195 21.7344 53.6416 21.7344 54.299C21.7408 55.543 23.2684 56.2004 24.1965 55.3625C25.1697 54.486 24.6348 52.9649 23.3199 52.8617C23.1395 52.8488 22.9203 52.8617 22.8301 52.894Z" fill="white"/>
<path d="M27.6641 52.8939C27.0518 53.0937 26.6908 53.5062 26.5941 54.1186C26.4652 54.9307 27.1871 55.7363 28.0443 55.7363C29.2883 55.7363 29.9457 54.2281 29.0949 53.3322C28.7469 52.9648 28.0766 52.7586 27.6641 52.8939Z" fill="white"/>
<path d="M30.1713 56.1553C29.5912 56.4582 29.3141 56.948 29.3527 57.5797C29.4107 58.4627 30.1906 59.0428 31.0994 58.8687C31.441 58.8043 31.8986 58.4627 32.0984 58.1275C32.3498 57.7021 32.3498 57.1221 32.092 56.6838C31.7117 56.0393 30.848 55.8008 30.1713 56.1553Z" fill="white"/>
<path d="M25.6853 58.9848C25.5693 59.0363 25.3502 59.2039 25.1826 59.3521C24.2351 60.2223 24.8603 61.7949 26.1494 61.7949C26.5877 61.7949 26.8584 61.6854 27.2 61.376C27.8961 60.7508 27.7994 59.6293 27.0131 59.1072C26.6908 58.8945 26.0269 58.8301 25.6853 58.9848Z" fill="white"/>
<path d="M21.135 61.8851C20.542 62.0978 20.123 62.6779 20.123 63.2967C20.123 64.3601 21.2574 65.0369 22.2242 64.547C22.6109 64.3537 22.785 64.1732 22.9525 63.7929C23.191 63.2773 23.1008 62.723 22.7141 62.2976C22.2951 61.8336 21.7086 61.6853 21.135 61.8851Z" fill="white"/>
</svg>
